<svg xmlns="http://www.w3.org/2000/svg" fill="currentColor" viewBox="0 0 24 24"><path fill-rule="evenodd" d="M19.586 21H4a3 3 0 0 1-3-3V9a3 3 0 0 1 3-3h.586L1.293 2.707l1.414-1.414 20 20-1.414 1.414zm-13-13H4a1 1 0 0 0-1 1v9a1 1 0 0 0 1 1h13.586l-2.263-2.263a5 5 0 0 1-7.06-7.06zm3.095 3.096a3 3 0 0 0 4.223 4.223zM20 6a3 3 0 0 1 3 3v9h-2V9a1 1 0 0 0-1-1h-3c-.664 0-1.112-.364-1.56-.987a8.38 8.38 0 0 1-.329-.499c-.062-.1-.27-.445-.3-.492C14.36 5.282 14.088 5 14 5h-4c.039 0 .011.015-.118.138-.069.066-.372.377-.355.36-.005.005-.482-.461-1.43-1.398-.032.032.305-.314.405-.409C8.968 3.247 9.407 3 10 3h4c1.087 0 1.69.622 2.518 1.978l.295.486c.1.162.18.283.25.381.047.065.088.117.12.155zm-1 5a1 1 0 1 1 0-2 1 1 0 0 1 0 2z"/></svg>